<svg width="660" height="588" viewBox="0 0 660 588" fill="none" xmlns="http://www.w3.org/2000/svg">
<g clip-path="url(#clip0_71_1608)">
<path d="M5.85849 290.775L227.778 350.235C228.724 350.493 229.713 350.557 230.684 350.423C231.655 350.289 232.59 349.959 233.43 349.455C234.271 348.951 235.001 348.281 235.577 347.487C236.152 346.693 236.561 345.791 236.778 344.835C242.916 314.323 237.2 282.618 220.794 256.17C204.388 229.722 178.523 210.516 148.461 202.459C118.398 194.402 86.3954 198.099 58.9615 212.798C31.5276 227.496 10.7227 252.093 0.778493 281.585C0.488161 282.522 0.390081 283.508 0.490141 284.483C0.590201 285.459 0.886338 286.404 1.36078 287.262C1.83522 288.121 2.47818 288.874 3.25107 289.478C4.02396 290.082 4.91084 290.523 5.85849 290.775Z" fill="currentColor"/>
<path d="M170.62 11.5552L230.09 233.475C230.34 234.425 230.78 235.314 231.382 236.089C231.985 236.864 232.738 237.509 233.597 237.985C234.455 238.462 235.401 238.76 236.378 238.861C237.355 238.962 238.342 238.865 239.28 238.575C268.772 228.631 293.369 207.826 308.067 180.392C322.766 152.958 326.463 120.955 318.406 90.8929C310.349 60.8304 291.143 34.9657 264.695 18.5595C238.247 2.15332 206.542 -3.56229 176.03 2.57517C175.076 2.79325 174.176 3.20144 173.383 3.77535C172.59 4.34925 171.921 5.07709 171.416 5.91536C170.911 6.75363 170.58 7.68512 170.444 8.65414C170.307 9.62317 170.367 10.6098 170.62 11.5552Z" fill="currentColor"/>
<path d="M494.808 14.6352L332.408 177.075C331.711 177.767 331.161 178.592 330.791 179.502C330.421 180.412 330.239 181.387 330.256 182.369C330.273 183.351 330.488 184.319 330.889 185.215C331.29 186.112 331.868 186.918 332.588 187.585C355.953 208.113 386.255 218.977 417.341 217.971C448.426 216.966 477.962 204.165 499.951 182.17C521.94 160.175 534.732 130.634 535.729 99.5488C536.726 68.4634 525.853 38.164 505.318 14.8052C504.65 14.0854 503.844 13.5081 502.947 13.1082C502.05 12.7082 501.081 12.4939 500.099 12.478C499.118 12.4621 498.143 12.645 497.233 13.0158C496.324 13.3865 495.499 13.9374 494.808 14.6352Z" fill="currentColor"/>
<path d="M654.25 296.925L432.33 237.465C431.383 237.207 430.394 237.144 429.422 237.279C428.45 237.414 427.516 237.744 426.675 238.249C425.834 238.755 425.104 239.425 424.529 240.22C423.954 241.015 423.546 241.918 423.33 242.875C417.199 273.385 422.919 305.085 439.327 331.528C455.735 357.972 481.598 377.173 511.657 385.228C541.717 393.283 573.715 389.586 601.147 374.891C628.578 360.195 649.383 335.603 659.33 306.115C659.62 305.178 659.718 304.193 659.618 303.217C659.518 302.242 659.222 301.296 658.747 300.438C658.273 299.58 657.63 298.826 656.857 298.222C656.084 297.619 655.197 297.178 654.25 296.925Z" fill="currentColor"/>
<path d="M489.49 576.145L430.03 354.225C429.779 353.276 429.338 352.388 428.735 351.614C428.132 350.84 427.379 350.195 426.521 349.719C425.663 349.242 424.717 348.944 423.741 348.842C422.765 348.74 421.778 348.837 420.84 349.125C391.352 359.072 366.76 379.876 352.065 407.308C337.369 434.739 333.672 466.738 341.727 496.798C349.782 526.857 368.984 552.72 395.427 569.128C421.87 585.536 453.57 591.256 484.08 585.125C485.034 584.907 485.934 584.499 486.727 583.925C487.52 583.351 488.189 582.623 488.694 581.785C489.199 580.947 489.529 580.015 489.666 579.046C489.803 578.077 489.743 577.091 489.49 576.145Z" fill="currentColor"/>
<path d="M165.3 573.075L327.75 410.615C328.447 409.924 328.997 409.098 329.367 408.188C329.737 407.279 329.919 406.304 329.902 405.322C329.885 404.34 329.67 403.372 329.269 402.475C328.868 401.579 328.29 400.772 327.57 400.105C304.22 379.472 273.881 368.52 242.736 369.481C211.592 370.442 181.986 383.245 159.953 405.279C137.921 427.312 125.12 456.919 124.161 488.064C123.201 519.209 134.155 549.547 154.79 572.895C155.458 573.614 156.264 574.191 157.16 574.591C158.057 574.991 159.025 575.206 160.006 575.223C160.988 575.24 161.962 575.058 162.872 574.689C163.782 574.32 164.607 573.771 165.3 573.075Z" fill="currentColor"/>
</g>
<defs>
<clipPath id="clip0_71_1608">
<rect width="659.29" height="587.55" fill="white" transform="translate(0.40918 0.0751953)"/>
</clipPath>
</defs>
</svg>
