<svg width="1386" height="244" viewBox="0 0 1386 244" fill="none" xmlns="http://www.w3.org/2000/svg">
<path d="M921.016 37.7052C918.037 34.7465 914.009 33.0861 909.811 33.0861C905.612 33.0861 901.584 34.7465 898.605 37.7052C895.741 40.8385 894.153 44.93 894.153 49.1752C894.153 53.4204 895.741 57.5119 898.605 60.6452C901.584 63.6039 905.612 65.2643 909.811 65.2643C914.009 65.2643 918.037 63.6039 921.016 60.6452C923.88 57.5119 925.468 53.4204 925.468 49.1752C925.468 44.93 923.88 40.8385 921.016 37.7052Z" fill="currentColor"/>
<path d="M342.146 41.6052H315.216V200.605H409.055V175.645H342.146V41.6052Z" fill="currentColor"/>
<path d="M443.185 150.705H525.916C527.199 150.707 528.435 150.214 529.365 149.33C530.296 148.446 530.851 147.237 530.916 145.955L531.166 141.175C531.166 121.725 526.286 106.245 516.666 95.1752C506.926 83.9752 492.495 78.2952 473.745 78.2952C462.045 78.2952 451.475 80.9652 442.315 86.2352C433.238 91.4038 425.771 98.988 420.745 108.145C415.645 117.365 413.055 128.035 413.055 139.865C413.055 151.695 415.635 162.405 420.745 171.695C425.74 180.906 433.28 188.484 442.466 193.525C451.676 198.635 462.355 201.225 474.185 201.225C483.716 201.338 493.174 199.55 502.005 195.965C510.191 192.592 517.554 187.497 523.596 181.025L525.505 178.975L510.276 163.145L508.125 165.355C504.036 169.578 499.125 172.92 493.695 175.175C487.989 177.53 481.868 178.717 475.695 178.665C465.995 178.665 458.086 175.895 451.516 170.205C446.472 165.844 442.803 160.112 440.956 153.705C440.847 153.357 440.822 152.988 440.883 152.629C440.943 152.27 441.089 151.93 441.306 151.637C441.524 151.344 441.807 151.107 442.134 150.945C442.461 150.784 442.821 150.701 443.185 150.705ZM440.546 126.115C442.186 119.718 445.662 113.941 450.546 109.495C456.816 103.825 464.496 101.075 474.026 101.075C483.826 101.075 491.456 103.775 497.356 109.335C502.096 113.878 505.215 119.85 506.236 126.335C506.294 126.669 506.279 127.012 506.19 127.339C506.102 127.666 505.943 127.97 505.725 128.229C505.507 128.489 505.234 128.697 504.927 128.84C504.619 128.982 504.284 129.056 503.945 129.055H442.796C442.441 129.056 442.091 128.975 441.773 128.819C441.455 128.664 441.176 128.437 440.959 128.157C440.742 127.877 440.591 127.551 440.52 127.204C440.448 126.857 440.457 126.498 440.546 126.155V126.115Z" fill="currentColor"/>
<path d="M635.495 89.7052C627.095 82.1652 615.175 78.3352 600.055 78.3352C590.055 78.3352 581.186 79.6052 573.846 82.1052C565.477 85.1242 557.507 89.154 550.115 94.1052L547.695 95.7052L559.396 114.835L561.986 113.055C573.516 105.135 584.986 101.115 595.986 101.115C604.806 101.115 611.546 103.115 615.986 107.035C620.426 110.955 622.536 116.395 622.536 123.725C622.536 124.388 622.272 125.024 621.803 125.493C621.334 125.962 620.699 126.225 620.036 126.225H588.736C574.426 126.375 563.036 129.715 554.885 136.155C546.526 142.775 542.286 151.835 542.286 163.085C542.204 170.018 544.056 176.837 547.635 182.775C551.291 188.717 556.559 193.5 562.826 196.565C569.814 199.947 577.503 201.63 585.266 201.475C600.266 201.475 612.266 197.785 621.166 190.475C621.311 190.371 621.482 190.308 621.661 190.292C621.839 190.277 622.019 190.31 622.18 190.388C622.342 190.465 622.48 190.585 622.579 190.734C622.678 190.883 622.736 191.056 622.745 191.235V200.615H648.815L648.586 121.515C648.396 108.015 643.975 97.3152 635.495 89.7052ZM589.396 178.705C582.516 178.705 577.025 177.145 573.055 174.075C571.219 172.707 569.744 170.912 568.758 168.845C567.772 166.779 567.304 164.503 567.396 162.215C567.396 157.285 569.116 153.825 572.666 151.615C576.666 149.155 582.966 147.905 591.536 147.905H620.135C620.441 147.904 620.744 147.963 621.026 148.079C621.309 148.195 621.566 148.366 621.782 148.581C621.999 148.797 622.171 149.053 622.288 149.335C622.405 149.617 622.466 149.92 622.466 150.225V156.225C621.892 159.493 620.651 162.607 618.821 165.374C616.99 168.14 614.609 170.5 611.826 172.305C605.716 176.565 598.156 178.705 589.396 178.705Z" fill="currentColor"/>
<path d="M713.396 85.4452C709.64 87.7404 706.266 90.6083 703.396 93.9452C703.261 94.0819 703.09 94.1771 702.904 94.2195C702.717 94.2619 702.522 94.2498 702.341 94.1844C702.161 94.1191 702.004 94.0034 701.887 93.8511C701.771 93.6987 701.701 93.5162 701.685 93.3252V78.9952H675.396V200.605H701.676V136.765C702.676 126.425 706.406 118.445 713.156 112.375C719.906 106.305 728.766 103.545 739.706 103.955L742.786 104.065V78.2952H739.786C729.686 78.4952 720.786 80.8852 713.396 85.4452Z" fill="currentColor"/>
<path d="M857.976 91.1552C849.695 82.6452 838.245 78.3352 823.875 78.3352C806.725 78.5752 793.576 83.7852 784.635 93.8652C784.5 93.9995 784.328 94.092 784.141 94.1317C783.954 94.1715 783.76 94.1568 783.581 94.0895C783.402 94.0221 783.246 93.9049 783.132 93.7517C783.017 93.5986 782.949 93.4158 782.935 93.2252V78.9952H756.666V200.605H782.935V135.885C783.766 126.355 787.186 118.515 793.106 112.595C799.026 106.675 806.666 103.655 816.266 103.515C825.146 103.515 831.866 105.915 836.796 110.845C841.726 115.775 844.125 122.695 844.125 131.595V200.595H870.396V126.135C870.396 111.405 866.206 99.6352 857.966 91.1352L857.976 91.1552Z" fill="currentColor"/>
<path d="M923.056 78.9952H896.776V200.605H923.056V78.9952Z" fill="currentColor"/>
<path d="M994.816 166.605L962.946 78.9952H934.865L977.865 188.845C979.223 192.31 981.592 195.286 984.666 197.384C987.74 199.481 991.374 200.604 995.095 200.605C998.819 200.604 1002.46 199.479 1005.53 197.377C1008.6 195.275 1009.97 192.295 1012.33 188.825L1055.1 78.9952H1028.1L996.396 166.595C996.334 166.754 996.226 166.89 996.085 166.987C995.945 167.083 995.779 167.135 995.609 167.137C995.439 167.138 995.272 167.088 995.13 166.993C994.989 166.898 994.879 166.763 994.816 166.605Z" fill="currentColor"/>
<path d="M1162.5 200.605L1162.27 121.505C1162.11 108.015 1157.74 97.3152 1149.27 89.7052C1140.8 82.0952 1128.95 78.3352 1113.83 78.3352C1103.78 78.3352 1094.96 79.6052 1087.62 82.1052C1079.25 85.1217 1071.28 89.1517 1063.89 94.1052L1061.47 95.6752L1073.13 114.815L1075.71 113.035C1087.25 105.115 1098.71 101.095 1109.71 101.095C1118.54 101.095 1125.27 103.095 1129.71 107.015C1134.15 110.935 1136.25 116.375 1136.25 123.705C1136.25 124.033 1136.18 124.358 1136.06 124.661C1135.93 124.964 1135.75 125.24 1135.52 125.472C1135.29 125.705 1135.01 125.889 1134.71 126.015C1134.41 126.14 1134.08 126.205 1133.76 126.205H1102.4C1088.09 126.355 1076.7 129.695 1068.55 136.135C1060.19 142.755 1055.94 151.815 1055.94 163.065C1055.86 169.999 1057.71 176.818 1061.3 182.755C1064.95 188.7 1070.22 193.482 1076.49 196.545C1083.47 199.927 1091.16 201.61 1098.93 201.455C1113.93 201.455 1125.93 197.765 1134.82 190.455C1134.96 190.348 1135.13 190.283 1135.31 190.266C1135.49 190.249 1135.67 190.282 1135.84 190.36C1136 190.438 1136.14 190.558 1136.24 190.709C1136.34 190.86 1136.4 191.035 1136.41 191.215V200.595L1162.5 200.605ZM1103.1 178.705C1096.23 178.705 1090.74 177.145 1086.77 174.075C1084.94 172.703 1083.47 170.906 1082.49 168.839C1081.51 166.773 1081.05 164.5 1081.15 162.215C1081.15 157.285 1082.87 153.825 1086.41 151.615C1090.41 149.155 1096.72 147.905 1105.29 147.905H1133.89C1134.5 147.905 1135.09 148.15 1135.53 148.585C1135.96 149.02 1136.21 149.61 1136.21 150.225V156.225C1135.64 159.493 1134.4 162.608 1132.57 165.375C1130.74 168.142 1128.36 170.501 1125.58 172.305C1119.48 176.565 1111.92 178.705 1103.1 178.705Z" fill="currentColor"/>
<path d="M1319.89 200.575L1303.65 163.255C1303.5 162.954 1303.28 162.699 1303 162.522C1302.72 162.345 1302.39 162.252 1302.06 162.255H1221.06C1220.72 162.255 1220.38 162.354 1220.1 162.54C1219.81 162.727 1219.59 162.993 1219.46 163.305L1203.46 200.615H1180.67L1246.27 52.9552C1247.63 49.8897 1249.86 47.2856 1252.67 45.4577C1255.49 43.6298 1258.77 42.6564 1262.13 42.6552C1265.48 42.6568 1268.77 43.6327 1271.59 45.4644C1274.4 47.2962 1276.62 49.9052 1277.99 52.9752L1343.4 200.575H1319.89ZM1229.37 142.575H1293.97C1294.06 142.577 1294.16 142.554 1294.24 142.509C1294.32 142.465 1294.4 142.4 1294.45 142.32C1294.5 142.24 1294.53 142.149 1294.54 142.054C1294.55 141.958 1294.53 141.863 1294.5 141.775L1262.81 68.9752C1262.69 68.7121 1262.5 68.4884 1262.26 68.3313C1262.02 68.1741 1261.74 68.0905 1261.45 68.0905C1261.16 68.0905 1260.88 68.1741 1260.64 68.3313C1260.4 68.4884 1260.21 68.7121 1260.1 68.9752L1228.84 141.775C1228.8 141.866 1228.78 141.965 1228.79 142.063C1228.8 142.161 1228.83 142.255 1228.89 142.336C1228.95 142.417 1229.02 142.482 1229.11 142.526C1229.2 142.57 1229.3 142.59 1229.4 142.585L1229.37 142.575Z" fill="currentColor"/>
<path d="M1363.72 42.6152H1385.4V200.615H1363.74L1363.72 42.6152Z" fill="currentColor"/>
<path d="M2.65612 120.265L94.4661 144.865C94.8577 144.974 95.2673 145.002 95.67 144.948C96.0728 144.894 96.4603 144.758 96.8091 144.55C97.1579 144.341 97.4608 144.064 97.6992 143.735C97.9376 143.406 98.1067 143.032 98.1961 142.635C100.779 129.994 98.4393 116.844 91.6548 105.869C84.8702 94.8947 74.1526 86.9237 61.69 83.5838C49.2275 80.2439 35.9601 81.7869 24.5967 87.8978C13.2333 94.0087 4.63097 104.227 0.546127 116.465C0.424716 116.853 0.383404 117.262 0.424705 117.666C0.466006 118.07 0.589057 118.462 0.786384 118.818C0.983711 119.173 1.2512 119.485 1.57261 119.733C1.89402 119.982 2.26265 120.163 2.65612 120.265Z" fill="currentColor"/>
<path d="M70.8253 4.75523L95.3953 96.5652C95.4974 96.9587 95.6783 97.3273 95.9271 97.6487C96.176 97.9702 96.4875 98.2376 96.8429 98.435C97.1983 98.6323 97.5901 98.7553 97.9945 98.7966C98.3988 98.8379 98.8074 98.7966 99.1953 98.6752C111.434 94.5904 121.652 85.9881 127.763 74.6247C133.874 63.2613 135.417 49.9939 132.077 37.5313C128.737 25.0688 120.766 14.3511 109.791 7.56657C98.8168 0.782033 85.6665 -1.55765 73.0253 1.02523C72.6316 1.11808 72.2607 1.2896 71.935 1.52947C71.6092 1.76934 71.3354 2.07262 71.1299 2.42106C70.9243 2.76949 70.7914 3.1559 70.7391 3.55703C70.6867 3.95816 70.7161 4.36573 70.8253 4.75523Z" fill="currentColor"/>
<path d="M204.936 6.02517L137.736 73.2352C137.446 73.5201 137.216 73.8613 137.062 74.2378C136.907 74.6143 136.831 75.0183 136.837 75.4252C136.844 75.8321 136.933 76.2335 137.1 76.6048C137.266 76.9761 137.507 77.3097 137.806 77.5852C147.464 86.1392 160.022 90.6848 172.917 90.2941C185.812 89.9034 198.072 84.6058 207.194 75.4827C216.315 66.3597 221.611 54.0991 222 41.204C222.389 28.3088 217.842 15.7514 209.286 6.09517C209.011 5.7956 208.677 5.55521 208.306 5.38864C207.935 5.22207 207.533 5.13279 207.126 5.12624C206.719 5.11969 206.315 5.19601 205.939 5.35055C205.562 5.50509 205.221 5.73462 204.936 6.02517Z" fill="currentColor"/>
<path d="M270.896 122.815L179.086 98.2152C178.695 98.1079 178.287 98.0809 177.885 98.1359C177.483 98.1909 177.097 98.3267 176.75 98.5351C176.402 98.7435 176.1 99.0202 175.862 99.3485C175.624 99.6768 175.456 100.05 175.366 100.445C172.805 113.077 175.158 126.21 181.943 137.167C188.729 148.125 199.437 156.083 211.887 159.42C224.336 162.757 237.589 161.221 248.945 155.126C260.301 149.03 268.906 138.834 273.006 126.615C273.128 126.227 273.169 125.819 273.128 125.414C273.086 125.01 272.963 124.618 272.766 124.263C272.569 123.907 272.301 123.596 271.98 123.347C271.658 123.098 271.29 122.917 270.896 122.815Z" fill="currentColor"/>
<path d="M202.735 238.325L178.135 146.515C178.033 146.122 177.852 145.753 177.603 145.432C177.354 145.11 177.043 144.843 176.687 144.645C176.332 144.448 175.94 144.325 175.536 144.284C175.132 144.242 174.723 144.284 174.335 144.405C162.101 148.493 151.888 157.095 145.781 168.456C139.673 179.816 138.13 193.08 141.468 205.539C144.806 217.998 152.772 228.714 163.742 235.5C174.711 242.286 187.856 244.631 200.495 242.055C200.892 241.967 201.268 241.799 201.598 241.561C201.928 241.323 202.206 241.02 202.416 240.671C202.626 240.322 202.762 239.934 202.817 239.531C202.872 239.128 202.844 238.717 202.735 238.325Z" fill="currentColor"/>
<path d="M68.6162 237.055L135.826 169.845C136.117 169.56 136.346 169.219 136.501 168.843C136.655 168.466 136.732 168.062 136.725 167.655C136.719 167.248 136.629 166.847 136.463 166.476C136.296 166.104 136.056 165.771 135.756 165.495C126.093 156.971 113.545 152.45 100.666 152.852C87.7866 153.255 75.5451 158.551 66.4337 167.663C57.3223 176.774 52.0261 189.016 51.6234 201.895C51.2207 214.774 55.7418 227.322 64.2662 236.985C64.5417 237.285 64.8752 237.525 65.2466 237.692C65.6179 237.858 66.0192 237.948 66.4262 237.954C66.8331 237.961 67.2371 237.884 67.6136 237.73C67.9901 237.575 68.3312 237.346 68.6162 237.055Z" fill="currentColor"/>
</svg>
